
    <svg width="1384" height="2978" xmlns="http://www.w3.org/2000/svg">
        <!-- Phone body -->
        <rect x="25" y="50" width="1334" height="2878" rx="40" ry="40" fill="#1F2937"/>
        
        <!-- Screen area -->
        <rect x="50" y="100" width="1284" height="2778" rx="30" ry="30" fill="#000000"/>
        
        <!-- Screen content -->
        <rect x="50" y="100" width="1284" height="2778" rx="30" ry="30" fill="url(#screen-content)"/>
        
        
        <svg width="1284" height="2778" xmlns="http://www.w3.org/2000/svg">
            <!-- Background -->
            <rect width="1284" height="2778" fill="#F3F6F8"/>
            
            <!-- Header -->
            <rect x="0" y="0" width="1284" height="100" fill="#0077B5"/>
            <text x="642" y="60" text-anchor="middle" font-family="Arial" font-size="24" font-weight="bold" fill="white">
                Choose Your Style
            </text>
            
            <!-- Corporate style -->
            <rect x="20" y="120" width="1244" height="160" rx="16" ry="16" fill="#FFFFFF" stroke="#E5E7EB"/>
            <circle cx="80" cy="170" r="40" fill="#0077B5" stroke="white" stroke-width="3"/>
            <text x="80" y="185" text-anchor="middle" font-family="Arial" font-size="30" fill="white">👔</text>
            <text x="150" y="175" font-family="Arial" font-size="22" font-weight="bold" fill="#000000">Corporate</text>
            <text x="150" y="200" font-family="Arial" font-size="16" fill="#666666">Traditional business look</text>
            <circle cx="1219" cy="200" r="15" fill="#0077B5"/>
            <text x="1219" y="207" text-anchor="middle" font-family="Arial" font-size="16" font-weight="bold" fill="white">✓</text>
            
            <!-- Creative style -->
            <rect x="20" y="300" width="1244" height="160" rx="16" ry="16" fill="#FFFFFF" stroke="#E5E7EB"/>
            <circle cx="80" cy="350" r="40" fill="#00A0DC" stroke="white" stroke-width="3"/>
            <text x="80" y="365" text-anchor="middle" font-family="Arial" font-size="30" fill="white">🎨</text>
            <text x="150" y="355" font-family="Arial" font-size="22" font-weight="bold" fill="#000000">Creative</text>
            <text x="150" y="380" font-family="Arial" font-size="16" fill="#666666">Modern and approachable</text>
            
            <!-- Executive style -->
            <rect x="20" y="480" width="1244" height="160" rx="16" ry="16" fill="#FFFFFF" stroke="#E5E7EB"/>
            <circle cx="80" cy="530" r="40" fill="#16A34A" stroke="white" stroke-width="3"/>
            <text x="80" y="545" text-anchor="middle" font-family="Arial" font-size="30" fill="white">💼</text>
            <text x="150" y="535" font-family="Arial" font-size="22" font-weight="bold" fill="#000000">Executive</text>
            <text x="150" y="560" font-family="Arial" font-size="16" fill="#666666">Leadership presence</text>
            
            <!-- Startup style -->
            <rect x="20" y="660" width="1244" height="160" rx="16" ry="16" fill="#FFFFFF" stroke="#E5E7EB"/>
            <circle cx="80" cy="710" r="40" fill="#DC2626" stroke="white" stroke-width="3"/>
            <text x="80" y="725" text-anchor="middle" font-family="Arial" font-size="30" fill="white">🚀</text>
            <text x="150" y="715" font-family="Arial" font-size="22" font-weight="bold" fill="#000000">Startup</text>
            <text x="150" y="740" font-family="Arial" font-size="16" fill="#666666">Innovative and dynamic</text>
            
            <!-- Continue button -->
            <rect x="40" y="850" width="1204" height="60" rx="30" ry="30" fill="#0077B5"/>
            <text x="642" y="885" text-anchor="middle" font-family="Arial" font-size="20" font-weight="bold" fill="white">
                Generate Headshot
            </text>
        </svg>
        
        <!-- Home indicator -->
        <rect x="622" y="2938" width="140" height="4" rx="2" ry="2" fill="#666666"/>
    </svg>