<?xml version="1.0" encoding="UTF-8"?>
<svg width="1024" height="1024" viewBox="0 0 1024 1024" fill="none" xmlns="http://www.w3.org/2000/svg">
  <!-- App Icon Background -->
  <rect width="1024" height="1024" rx="180" fill="url(#backgroundGradient)"/>
  
  <!-- Gradient Definition -->
  <defs>
    <linearGradient id="backgroundGradient" x1="0%" y1="0%" x2="100%" y2="100%">
      <stop offset="0%" style="stop-color:#1B365D"/>
      <stop offset="100%" style="stop-color:#0F1F3A"/>
    </linearGradient>
    <filter id="glow" x="-20%" y="-20%" width="140%" height="140%">
      <feGaussianBlur stdDeviation="3" result="coloredBlur"/>
      <feMerge> 
        <feMergeNode in="coloredBlur"/>
        <feMergeNode in="SourceGraphic"/>
      </feMerge>
    </filter>
  </defs>
  
  <!-- Main Icon Content -->
  <g transform="translate(212, 212)">
    <!-- Aperture Base Circle -->
    <circle cx="300" cy="300" r="260" fill="none" stroke="#ffffff" stroke-width="24" opacity="0.3"/>
    <circle cx="300" cy="300" r="220" fill="none" stroke="#ffffff" stroke-width="16" opacity="0.6"/>
    
    <!-- Aperture Blades -->
    <g fill="#ffffff" opacity="0.4">
      <path d="M300 120 L360 180 L300 240 L240 180 Z"/>
      <path d="M480 300 L420 360 L360 300 L420 240 Z"/>
      <path d="M300 480 L240 420 L300 360 L360 420 Z"/>
      <path d="M120 300 L180 240 L240 300 L180 360 Z"/>
    </g>
    
    <!-- Secondary Aperture Ring -->
    <circle cx="300" cy="300" r="140" fill="none" stroke="#FF6B35" stroke-width="8" opacity="0.8"/>
    
    <!-- Center Aperture -->
    <circle cx="300" cy="300" r="80" fill="#FF6B35" filter="url(#glow)"/>
    <circle cx="300" cy="300" r="45" fill="#ffffff" opacity="0.95"/>
    <circle cx="300" cy="300" r="20" fill="#1B365D" opacity="0.3"/>
    
    <!-- Multi-directional Arrows (representing multi-platform) -->
    <g stroke="#FF6B35" stroke-width="16" fill="none" filter="url(#glow)">
      <!-- Top Arrow -->
      <path d="M300 60 L270 90 M300 60 L330 90 M300 60 L300 20"/>
      <!-- Right Arrow -->
      <path d="M540 300 L510 270 M540 300 L510 330 M540 300 L580 300"/>
      <!-- Bottom Arrow -->
      <path d="M300 540 L270 510 M300 540 L330 510 M300 540 L300 580"/>
      <!-- Left Arrow -->
      <path d="M60 300 L90 270 M60 300 L90 330 M60 300 L20 300"/>
    </g>
    
    <!-- Corner Platform Indicators (subtle) -->
    <g fill="#FF6B35" opacity="0.3">
      <circle cx="100" cy="100" r="12"/>
      <circle cx="500" cy="100" r="12"/>
      <circle cx="500" cy="500" r="12"/>
      <circle cx="100" cy="500" r="12"/>
    </g>
  </g>
</svg>